<?xml version="1.0" standalone="no"?>
<!DOCTYPE svg PUBLIC "-//W3C//DTD SVG 20010904//EN"
 "http://www.w3.org/TR/2001/REC-SVG-20010904/DTD/svg10.dtd">
<svg version="1.0" xmlns="http://www.w3.org/2000/svg"
 width="288.000000pt" height="288.000000pt" viewBox="0 0 288.000000 288.000000"
 preserveAspectRatio="xMidYMid meet">
<metadata>
Created by potrace 1.15, written by Peter Selinger 2001-2017
</metadata>
<g transform="translate(0.000000,288.000000) scale(0.100000,-0.100000)"
fill="#000000" stroke="none">
<path d="M1303 2690 c-45 -10 -91 -24 -102 -29 -11 -6 -28 -11 -38 -11 -38 0
-147 -62 -206 -117 -66 -62 -85 -73 -215 -123 -46 -18 -98 -43 -117 -56 -18
-12 -50 -30 -70 -40 -45 -21 -150 -126 -175 -174 -97 -190 -128 -249 -143
-270 -9 -13 -17 -35 -17 -48 0 -22 -16 -61 -29 -72 -21 -17 -35 -47 -43 -88
-5 -26 -11 -60 -15 -77 -3 -16 -16 -41 -29 -55 -12 -14 -28 -46 -33 -73 -20
-86 7 -315 42 -355 7 -10 15 -37 16 -61 2 -53 28 -123 70 -190 17 -28 33 -63
37 -78 4 -16 17 -40 31 -54 13 -14 21 -32 18 -41 -3 -8 1 -20 9 -27 9 -7 19
-29 22 -50 5 -27 35 -71 49 -71 19 0 121 -24 129 -31 6 -5 25 -20 41 -33 17
-13 41 -47 55 -75 26 -57 54 -71 141 -71 40 0 53 -6 92 -40 25 -22 53 -40 62
-40 9 0 14 -4 11 -9 -4 -5 9 -19 28 -30 19 -12 37 -28 40 -36 3 -8 12 -15 20
-15 9 0 24 -9 34 -20 17 -18 25 -19 88 -12 38 5 90 7 115 4 31 -2 50 1 60 11
23 22 110 37 220 37 73 0 109 4 132 16 38 20 177 14 246 -10 31 -11 81 -16
173 -16 l130 0 86 87 c53 54 95 106 107 133 10 25 40 70 65 100 72 87 100 127
100 146 0 25 45 115 75 149 48 54 102 183 130 310 15 66 33 147 41 181 22 94
18 213 -12 334 -14 58 -29 139 -34 180 -6 55 -23 107 -60 195 -65 149 -82 185
-92 185 -5 0 -8 4 -8 10 0 17 -66 113 -112 162 -40 43 -152 128 -169 128 -4 0
-63 34 -130 75 -68 41 -129 75 -136 75 -7 0 -21 4 -31 9 -29 17 -133 51 -196
67 -36 8 -135 16 -241 19 -153 4 -192 2 -262 -15z"/>
</g>
</svg>
