<?xml version="1.0" standalone="no"?>
<!DOCTYPE svg PUBLIC "-//W3C//DTD SVG 20010904//EN"
 "http://www.w3.org/TR/2001/REC-SVG-20010904/DTD/svg10.dtd">
<svg version="1.0" xmlns="http://www.w3.org/2000/svg"
 width="192.000000pt" height="288.000000pt" viewBox="0 0 192.000000 288.000000"
 preserveAspectRatio="xMidYMid meet">
<metadata>
Created by potrace 1.15, written by Peter Selinger 2001-2017
</metadata>
<g transform="translate(0.000000,288.000000) scale(0.100000,-0.100000)"
fill="#000000" stroke="none">
<path d="M1096 2775 c-21 -14 -52 -31 -70 -39 -18 -8 -49 -30 -69 -50 -20 -20
-40 -36 -45 -36 -5 0 -52 -38 -104 -85 -135 -121 -256 -291 -278 -391 -21 -93
-129 -409 -179 -519 -27 -60 -68 -144 -92 -185 -78 -137 -130 -268 -149 -375
-10 -55 -23 -121 -29 -148 -7 -31 -9 -118 -5 -245 5 -166 4 -204 -10 -241 -18
-50 -21 -104 -6 -131 13 -24 165 -152 205 -173 57 -29 150 -36 528 -41 378 -5
486 0 597 29 69 18 377 175 384 195 3 8 14 29 25 45 11 17 20 43 20 59 1 17
10 35 25 47 29 23 36 59 42 238 l6 133 -42 102 c-23 55 -47 108 -53 116 -7 9
-39 29 -72 45 -33 17 -61 33 -63 38 -2 4 -11 7 -21 7 -9 0 -36 9 -60 21 -36
17 -48 18 -76 9 -22 -7 -95 -10 -197 -8 -159 3 -164 2 -218 -24 -32 -15 -87
-57 -132 -102 l-77 -75 -9 52 c-21 113 -52 396 -52 467 0 41 7 111 15 155 36
192 69 324 92 376 29 66 40 71 195 88 75 8 121 20 194 51 74 31 104 39 133 34
30 -4 44 1 91 34 47 33 55 43 58 75 4 42 -22 74 -67 83 -27 6 -28 7 -18 40 17
56 -4 101 -94 203 -86 97 -119 121 -167 121 -15 0 -37 7 -48 15 -28 22 -67 18
-108 -10z"/>
</g>
</svg>
