<?xml version="1.0" standalone="no"?>
<!DOCTYPE svg PUBLIC "-//W3C//DTD SVG 20010904//EN"
 "http://www.w3.org/TR/2001/REC-SVG-20010904/DTD/svg10.dtd">
<svg version="1.0" xmlns="http://www.w3.org/2000/svg"
 width="359.000000pt" height="166.000000pt" viewBox="0 0 359.000000 166.000000"
 preserveAspectRatio="xMidYMid meet">
<metadata>
Created by potrace 1.15, written by Peter Selinger 2001-2017
</metadata>
<g transform="translate(0.000000,166.000000) scale(0.100000,-0.100000)"
fill="#000000" stroke="none">
<path d="M1215 1647 c-2 -7 -9 -30 -14 -52 -16 -61 -134 -178 -247 -245 -23
-14 -59 -38 -79 -55 -21 -16 -75 -60 -120 -96 -46 -36 -96 -77 -111 -92 -98
-92 -122 -112 -158 -135 -23 -14 -46 -31 -54 -38 -7 -8 -30 -18 -50 -24 -59
-15 -133 -77 -171 -142 -39 -65 -91 -177 -97 -208 -2 -8 -14 -49 -28 -90 -33
-104 -44 -147 -51 -205 -3 -27 -7 -61 -10 -75 -2 -14 -6 -41 -9 -60 -2 -19 -8
-56 -11 -82 l-7 -48 1700 0 1700 0 21 41 c14 26 18 45 13 53 -5 6 -12 27 -16
47 -5 31 -3 39 19 55 14 10 25 23 25 29 0 16 66 105 102 136 28 26 30 34 6 30
-5 0 -9 2 -9 6 -1 5 -3 17 -5 28 -2 11 -6 43 -9 70 -16 156 -89 472 -136 590
-4 11 -11 35 -14 52 -4 18 -12 36 -19 40 -7 5 -16 22 -19 39 -7 37 -63 123
-115 178 -60 63 -180 114 -234 101 -25 -6 -140 27 -161 47 -10 8 -12 22 -7 45
8 34 -1 43 -20 21 -38 -47 -69 -78 -78 -78 -6 0 -12 -4 -14 -8 -5 -13 -175
-92 -197 -92 -10 0 -24 -6 -30 -14 -6 -8 -24 -16 -39 -19 -104 -22 -142 -26
-260 -26 -121 -1 -136 1 -184 24 -28 14 -59 25 -68 25 -9 0 -21 5 -27 11 -16
16 -177 69 -258 85 -38 8 -93 14 -122 14 -56 0 -127 24 -202 68 -78 46 -121
63 -126 49z"/>
</g>
</svg>
