<?xml version="1.0" standalone="no"?>
<!DOCTYPE svg PUBLIC "-//W3C//DTD SVG 20010904//EN"
 "http://www.w3.org/TR/2001/REC-SVG-20010904/DTD/svg10.dtd">
<svg version="1.0" xmlns="http://www.w3.org/2000/svg"
 width="288.000000pt" height="288.000000pt" viewBox="0 0 288.000000 288.000000"
 preserveAspectRatio="xMidYMid meet">
<metadata>
Created by potrace 1.15, written by Peter Selinger 2001-2017
</metadata>
<g transform="translate(0.000000,288.000000) scale(0.100000,-0.100000)"
fill="#000000" stroke="none">
<path d="M1215 2643 c-11 -2 -94 -20 -185 -40 -91 -19 -169 -39 -175 -43 -5
-4 -29 -11 -52 -15 -24 -4 -43 -9 -43 -11 0 -3 16 -29 35 -59 26 -41 41 -55
58 -55 13 0 36 -13 52 -30 24 -25 26 -30 12 -36 -10 -3 -17 -12 -17 -19 0 -7
-12 -21 -27 -30 l-26 -18 24 -17 c13 -10 36 -21 51 -24 40 -8 39 -47 -1 -63
-23 -8 -28 -8 -25 2 9 22 -16 28 -31 9 -7 -11 -17 -16 -21 -11 -4 4 -2 7 4 7
7 0 12 5 12 10 0 16 -46 12 -61 -6 -7 -9 -12 -30 -11 -46 3 -36 -15 -63 -32
-49 -13 11 -56 3 -56 -10 0 -5 -17 -17 -38 -28 -50 -26 -128 -100 -141 -135
-8 -21 -7 -34 4 -56 8 -16 15 -36 15 -45 0 -8 4 -23 9 -33 24 -47 75 -257 67
-277 -8 -22 -53 -47 -93 -51 -101 -11 -169 -28 -186 -45 -10 -11 -25 -19 -33
-19 -11 0 -14 -6 -9 -22 15 -52 17 -63 7 -50 -7 11 -10 11 -15 -2 -3 -8 -2
-18 3 -21 6 -4 10 -10 10 -14 0 -15 -49 -61 -65 -61 -20 0 -36 -41 -23 -57 6
-7 19 -13 29 -13 12 0 23 -10 29 -25 12 -32 34 -41 66 -27 51 24 20 2 -58 -41
-46 -25 -93 -55 -106 -67 -13 -12 -26 -19 -29 -16 -4 3 -13 -4 -21 -15 -10
-15 -17 -18 -22 -9 -8 13 -6 14 -55 -45 -25 -30 -34 -95 -17 -122 14 -22 102
-52 207 -70 17 -3 86 -6 155 -7 69 -1 130 -5 137 -9 6 -4 11 -20 11 -35 0 -15
4 -38 9 -52 11 -26 10 -50 -2 -110 -7 -34 -5 -36 32 -49 21 -8 62 -29 91 -47
29 -19 56 -34 61 -34 5 0 22 -7 37 -15 16 -8 55 -15 89 -15 75 0 181 -22 264
-55 36 -14 70 -25 77 -25 7 0 25 -6 41 -14 27 -14 58 -27 131 -56 24 -9 76
-11 195 -7 152 5 183 10 262 43 17 7 62 25 100 40 39 15 88 39 110 53 42 25
95 77 95 91 0 5 8 11 19 15 13 4 19 15 19 38 2 61 31 189 57 244 25 52 29 55
55 49 16 -3 32 -1 35 4 3 6 13 10 21 10 29 0 54 35 138 193 19 37 35 70 35 72
0 3 3 24 7 48 10 52 7 68 -14 83 -10 7 -15 14 -12 16 3 3 22 17 42 32 21 15
50 48 65 72 15 24 33 42 40 40 15 -6 43 26 49 58 2 14 16 46 29 71 14 25 25
48 25 52 0 17 43 141 62 178 51 98 59 118 64 172 5 50 3 61 -15 80 -12 13 -33
26 -46 29 -14 3 -25 10 -25 15 0 27 -310 -17 -425 -61 -32 -12 -91 -30 -98
-30 -11 0 -8 269 5 358 12 92 5 111 -43 115 -13 0 -27 6 -31 12 -8 12 -11 12
-83 14 -52 1 -55 2 -45 20 15 29 -52 97 -102 104 -20 3 -38 1 -40 -4 -4 -11
-43 -18 -143 -26 -38 -3 -72 -10 -73 -15 -3 -5 -9 -5 -15 0 -8 6 -22 6 -37 0
-57 -24 -229 -29 -253 -8 -73 61 -95 88 -107 133 -13 49 -20 52 -75 40z"/>
</g>
</svg>
